<?xml version="1.0" standalone="no"?>
<!DOCTYPE svg PUBLIC "-//W3C//DTD SVG 20010904//EN"
 "http://www.w3.org/TR/2001/REC-SVG-20010904/DTD/svg10.dtd">
<svg version="1.0" xmlns="http://www.w3.org/2000/svg"
 width="96.000000pt" height="96.000000pt" viewBox="0 0 96.000000 96.000000"
 preserveAspectRatio="xMidYMid meet">

<g transform="translate(0.000000,96.000000) scale(0.100000,-0.100000)"
fill="#000000" stroke="none">
<path d="M130 830 c-18 -18 -20 -33 -20 -194 l0 -174 70 34 c39 19 74 34 78
34 4 0 22 -13 41 -29 l35 -29 -55 -15 c-82 -24 -135 -31 -143 -18 -20 32 -26
-1 -26 -142 0 -152 0 -154 26 -178 l26 -24 318 0 318 0 26 24 26 24 0 337 c0
314 -1 338 -18 353 -17 15 -56 17 -350 17 -319 0 -333 -1 -352 -20z m393 -257
c-134 -99 -162 -117 -169 -111 -6 7 280 215 289 210 5 -2 -49 -47 -120 -99z
m282 32 c-22 -19 -44 -34 -49 -35 -11 0 -11 1 38 39 53 42 61 39 11 -4z m-157
-482 c-93 -2 -243 -2 -335 0 -93 1 -17 3 167 3 184 0 260 -2 168 -3z"/>
</g>
</svg>
